# xmcd
#
# Track frame offsets: 
#        150
#        13653
#        25619
#        39388
#        51568
#        64063
#        76500
#        89092
#        101757
#        114114
#        126274
#        139363
#        151687
#        166194
#        183187
#        195608
#        208468
#        220100
#
# Disc length: 3094 seconds
#
# Revision: 3
# Processed by: cddbd v1.5.2PL0 Copyright (c) Steve Scherf et al.
# Submitted via: ExactAudioCopyFreeDBPlugin 1.0
#
DISCID=f20c1412
DTITLE=Four Tops - The Definitive Collection
DYEAR=2008
DGENRE=R&B
TTITLE0=Reach Out I'll Be There
TTITLE1=Standing In The Shadows Of Love
TTITLE2=Bernadette
TTITLE3=Ask The Lonely
TTITLE4=Baby I Need Your Loving
TTITLE5=Without The One You Love (Life's Not Worth While)
TTITLE6=It's The Same Old Song
TTITLE7=Loving You Is Sweeter Than Ever
TTITLE8=I Can't Help Myself (Sugar Pie, Honey Bunch)
TTITLE9=Something About You
TTITLE10=I Got A Feeling
TTITLE11=Walk Away Renee
TTITLE12=Still Water (Love)
TTITLE13=(It's The Way) Nature Planned It
TTITLE14=It's All In The Game
TTITLE15=You Keep Running Away
TTITLE16=7-Rooms of Gloom
TTITLE17=Shake Me, Wake Me (When It's Over)
EXTD=
EXTT0=
EXTT1=
EXTT2=
EXTT3=
EXTT4=
EXTT5=
EXTT6=
EXTT7=
EXTT8=
EXTT9=
EXTT10=
EXTT11=
EXTT12=
EXTT13=
EXTT14=
EXTT15=
EXTT16=
EXTT17=
PLAYORDER=
